# xmcd CD database file
#
# Track frame offsets:
#	150
#	4593
#	22010
#	37904
#	50977
#	62051
#	65199
#	73789
#	77758
#	92599
#	123489
#	148510
#	149163
#	161019
#	172500
#	194222
#	205519
#	221809
#	227772
#	241553
#	256964
#	270677
#	288377
#
# Disc length: 4014 seconds
#
# Revision: 0
# Processed by: cddbd v1.5.2PL0 Copyright (c) Steve Scherf et al.
# Submitted via: CDex 1.51
#
DISCID=5b0fac17
DTITLE=The Rat Pack - Live in St Louis 1965 w. Count Basie Band
DYEAR=2001
DGENRE=Jazz
TTITLE0=Johnny Carson Introduce Dean Martin
TTITLE1=Send Me the Pillow that You Dream On
TTITLE2=King of the Road
TTITLE3=Everybody Loves Somebody Sometime
TTITLE4=Medley - Volare-On an Evening in Roma
TTITLE5=Johnny Carson introduce Sammy Davis Jr.
TTITLE6=My Shining Hour
TTITLE7=Monologue
TTITLE8=Who Can I Turn On
TTITLE9=medley - I Got You Under My Skin-You Are My Sunshine
TTITLE10=One for My Baby
TTITLE11=Johnny Cash Introduce Frank Sinatra
TTITLE12=Get Me to the Church on Time
TTITLE13=Fly Me to the Moon
TTITLE14=Luck Be a Lady
TTITLE15=I Only Have Eyes for You
TTITLE16=I Got You Under My Skin
TTITLE17=Monologue
TTITLE18=Please Be Kind
TTITLE19=You Made Me Feek So Young
TTITLE20=My Kind of Town
TTITLE21=Rat Pack Monologue
TTITLE22=Birth of the Blues
EXTD=YEAR: 2001
EXTT0=
EXTT1=
EXTT2=
EXTT3=
EXTT4=
EXTT5=
EXTT6=
EXTT7=
EXTT8=
EXTT9=
EXTT10=
EXTT11=
EXTT12=
EXTT13=
EXTT14=
EXTT15=
EXTT16=
EXTT17=
EXTT18=
EXTT19=
EXTT20=
EXTT21=
EXTT22=
PLAYORDER=
